<svg width="179" height="179" viewBox="0 0 179 179" fill="none" xmlns="http://www.w3.org/2000/svg">
<rect width="179" height="179" rx="40" fill="#AD4F36"/>
<path d="M101.788 115.153C102.688 111.013 107.898 114.373 110.928 114.243C116.828 114.813 126.298 115.503 129.948 110.653C130.498 109.743 130.598 108.573 130.558 107.573C130.418 103.433 129.368 96.0732 128.518 90.9832C128.158 84.7732 123.728 78.8032 117.788 77.7032C112.718 76.6032 106.158 78.8033 103.928 83.8633C101.488 89.3633 103.778 96.9932 110.388 95.8232C111.678 95.6732 113.138 94.5932 112.688 93.2232C112.158 91.3232 109.888 89.4932 110.918 87.3532C113.978 81.9232 121.858 86.4532 121.838 91.7232C123.098 101.813 109.668 107.243 102.798 102.243C90.5084 93.6133 91.0984 70.0832 117.788 69.8532C120.568 69.5632 127.188 69.6732 128.788 66.6932C131.278 60.1932 115.288 64.3932 116.168 58.1932C117.818 53.5932 129.308 57.5033 127.728 51.1833C125.698 48.0333 120.898 49.0532 117.838 47.4832C115.818 46.8032 115.198 44.6232 116.618 43.0632C117.878 41.7932 120.388 41.4632 122.768 40.9532C125.978 40.4732 129.498 38.7532 127.548 35.7432C126.818 34.9132 125.418 34.3832 123.628 34.0532C116.178 32.7532 106.508 34.5732 102.078 34.1132C90.3884 31.4032 78.9984 44.0232 87.3284 54.3432C90.9984 59.1432 100.718 58.7432 100.908 51.6332C100.738 48.4232 96.8184 50.9632 94.9584 49.7532C93.7684 49.0432 93.3584 47.6532 93.6184 46.4732C94.1584 43.8832 96.9284 41.8132 99.6284 42.1032C109.458 42.4132 110.568 55.9032 103.978 61.5332C89.8584 73.6932 74.1284 54.7032 74.7284 39.8732C74.6684 37.6532 74.0384 34.2532 72.0484 33.2432C66.5984 31.5632 66.3784 39.0032 64.9084 42.7632C64.1684 44.8132 61.9584 46.0532 60.4884 44.3132C58.3584 42.0432 58.8284 35.7632 55.8084 33.7332C49.7284 31.1032 49.9384 40.1632 50.3784 44.1132C50.8784 54.3833 49.4584 66.2932 53.5984 76.0332C57.1284 83.6032 68.8684 85.1932 73.5384 77.9832C75.9084 74.8732 73.4684 67.9132 69.1684 70.1732C67.9784 71.1832 67.5984 73.6432 65.7884 74.1532C63.1484 74.9532 60.8484 72.3932 60.8284 69.8932C60.5884 65.3432 65.4584 62.6332 69.6984 62.9832C75.3484 63.7532 79.6784 67.5332 80.5184 71.3932C82.6884 80.3632 74.2484 89.1832 65.4784 89.9732C56.3784 90.6132 50.6884 87.9732 50.4184 97.9132C50.4384 101.463 50.6584 105.033 51.0684 108.563C51.4384 111.803 53.9584 112.263 55.4384 109.743C57.3184 106.953 55.4684 97.9232 60.7184 99.0032C65.1384 101.213 61.8784 111.593 67.0484 112.643C71.3884 111.283 69.0284 100.513 72.7384 98.9732C74.1584 98.3732 75.9284 99.6632 76.9584 100.673C81.9384 105.603 83.3184 112.953 83.2784 119.723C83.6284 123.253 85.5784 126.613 83.5784 129.813L83.4584 130.013C82.0384 132.213 79.3184 133.223 76.7984 133.573C60.4384 135.603 42.8184 135.293 26.0384 137.123C25.8784 138.873 26.1984 140.453 27.3784 141.643C28.4584 142.723 29.6684 143.703 30.9884 144.613C37.6384 143.373 44.2684 142.083 50.9084 141.213C83.7084 137.833 116.878 135.853 149.818 137.513C150.918 136.623 151.978 135.703 152.968 134.723C135.158 134.153 114.398 133.903 105.938 132.973C100.628 130.873 101.598 120.363 101.798 115.153H101.788Z" fill="#F7F0E2"/>
</svg>
