<svg width="528" height="332" viewBox="0 0 528 332" fill="none" xmlns="http://www.w3.org/2000/svg">
<rect width="528" height="332" rx="40" fill="#AD4F36"/>
<path d="M253.81 168.945C255.414 166.339 253.853 163.601 253.573 160.71C253.606 155.191 252.496 149.191 248.502 145.172C247.673 144.351 246.251 143.299 245.121 143.781C242.149 145.03 244.033 153.823 240.555 154.929C236.399 154.063 239.026 145.61 235.473 143.803C231.263 142.927 232.749 150.286 231.242 152.563C230.046 154.622 228.033 154.239 227.732 151.6C227.398 148.72 227.225 145.796 227.204 142.905C227.419 134.791 231.995 136.948 239.285 136.423C246.316 135.788 253.089 128.582 251.344 121.268C250.666 118.114 247.188 115.037 242.666 114.402C239.263 114.117 235.366 116.329 235.549 120.041C235.57 122.078 237.411 124.17 239.533 123.513C240.986 123.096 241.298 121.093 242.246 120.271C245.702 118.432 247.651 124.104 245.756 126.644C242.02 132.535 232.598 131.232 229.767 125.056C226.45 117.107 227.581 107.383 227.182 99.0061C226.827 95.7867 226.666 88.3954 231.543 90.5416C233.966 92.1951 233.589 97.3198 235.301 99.1703C236.485 100.594 238.251 99.5864 238.843 97.9111C240.028 94.8341 240.2 88.7786 244.572 90.1474C246.165 90.9687 246.671 93.75 246.725 95.5568C246.241 107.657 258.86 123.151 270.187 113.23C275.463 108.642 274.58 97.6264 266.699 97.3745C264.534 97.1446 262.306 98.8309 261.875 100.944C261.67 101.908 262.004 103.036 262.952 103.616C264.448 104.602 267.592 102.532 267.732 105.149C267.582 110.953 259.786 111.281 256.846 107.361C250.16 98.9404 259.301 88.6472 268.68 90.8592C272.233 91.2315 279.996 89.7532 285.972 90.8044C287.404 91.0782 288.535 91.5052 289.116 92.1841C290.688 94.637 287.857 96.0386 285.283 96.4328C283.377 96.8489 281.353 97.1226 280.352 98.152C279.221 99.4222 279.706 101.207 281.331 101.755C283.786 103.036 287.63 102.204 289.267 104.777C290.538 109.923 281.321 106.737 279.996 110.493C279.286 115.552 292.12 112.124 290.118 117.424C288.826 119.855 283.517 119.768 281.288 119.998C259.872 120.184 259.398 139.379 269.261 146.42C274.763 150.494 285.542 146.059 284.529 137.835C284.551 133.532 278.23 129.842 275.776 134.266C274.957 136.007 276.777 137.507 277.197 139.051C277.552 140.168 276.379 141.055 275.345 141.175C270.037 142.139 268.206 135.908 270.166 131.419C271.964 127.29 277.218 125.494 281.288 126.392C286.058 127.301 289.612 132.163 289.902 137.233C290.581 141.383 291.431 147.395 291.539 150.767C291.571 151.589 291.496 152.541 291.044 153.286C288.115 157.25 280.513 156.681 275.786 156.221C273.353 156.33 269.175 153.593 268.454 156.965C268.292 161.214 267.517 169.788 271.781 171.496C280.524 172.471 305.644 172.536 320.977 173.412C321.171 173.412 321.354 173.412 321.483 173.347C321.806 173.215 321.806 172.843 321.806 172.744C321.806 172.657 321.806 172.668 321.806 172.602C321.838 164.17 321.785 92.0418 321.806 90.3992C321.828 82.3071 317.65 74.8938 311.329 70.7656C307.873 68.4771 303.717 67.1083 299.345 67.0097C297.203 66.9878 219.796 67.0097 218.009 67.0097C210.601 66.9988 203.71 70.7109 199.575 76.4488C196.818 80.2047 195.149 84.9023 195.053 89.8846C195.031 92.0637 195.053 170.467 195.053 172.69C195.063 173.292 195.117 174.814 195.257 175.657C195.332 176.336 195.44 176.927 196.258 176.708C212.916 173.062 231.511 174.124 248.426 171.989C250.451 171.704 252.626 170.872 253.767 169.087L253.864 168.923L253.81 168.945Z" fill="#F7F0E2"/>
<path d="M227.612 178.252C217.728 179.577 207.854 182.052 197.927 183.322C197.808 183.333 197.69 183.355 197.561 183.377C201.372 190.9 209.071 196.046 217.965 196.046H298.817C310.36 196.046 319.889 187.374 321.504 176.095C320.222 176.051 319.006 175.975 317.994 175.975C287.953 173.456 257.589 175.11 227.612 178.252Z" fill="#E8DBBE"/>
<path d="M432.979 259.882V225.275H436.487V259.882H432.979Z" fill="#FBFFED"/>
<path d="M412.956 260.35C410.243 260.35 407.811 259.82 405.66 258.76C403.54 257.7 401.888 256.219 400.703 254.317C399.518 252.415 398.926 250.233 398.926 247.77C398.926 245.806 399.269 244.06 399.955 242.532C400.641 240.973 401.591 239.617 402.807 238.464C404.054 237.31 405.504 236.421 407.157 235.798C408.84 235.174 410.633 234.863 412.535 234.863C414.374 234.863 416.058 235.159 417.585 235.751C419.113 236.312 420.438 237.123 421.561 238.183C422.683 239.243 423.54 240.49 424.133 241.924C424.725 243.358 424.99 244.948 424.928 246.694L424.881 248.518H401.779L401.264 245.572H422.215L421.374 246.18V245.058C421.311 243.935 420.906 242.86 420.158 241.831C419.409 240.771 418.38 239.913 417.071 239.259C415.762 238.573 414.249 238.23 412.535 238.23C410.602 238.23 408.871 238.573 407.344 239.259C405.847 239.913 404.662 240.927 403.789 242.298C402.948 243.67 402.527 245.416 402.527 247.536C402.527 249.469 402.979 251.137 403.883 252.54C404.787 253.943 406.05 255.034 407.671 255.814C409.323 256.593 411.288 256.983 413.564 256.983C415.247 256.983 416.759 256.749 418.1 256.281C419.441 255.814 420.797 255.081 422.169 254.083L423.852 256.702C423.041 257.357 422.075 257.965 420.953 258.526C419.83 259.087 418.599 259.539 417.258 259.882C415.917 260.194 414.483 260.35 412.956 260.35Z" fill="#FBFFED"/>
<path d="M380.798 259.882L369.013 235.47H373.035L382.669 256.141L381.64 256.655L392.069 235.47H395.95L383.604 259.882H380.798Z" fill="#FBFFED"/>
<path d="M349.464 260.35C346.969 260.35 344.756 259.804 342.823 258.713C340.921 257.622 339.424 256.126 338.333 254.224C337.273 252.291 336.743 250.093 336.743 247.63C336.743 245.167 337.304 242.984 338.427 241.082C339.549 239.149 341.077 237.637 343.01 236.546C344.943 235.455 347.141 234.909 349.604 234.909C351.132 234.909 352.535 235.112 353.813 235.517C355.122 235.923 356.26 236.484 357.227 237.201C358.224 237.918 359.035 238.729 359.659 239.633C360.282 240.506 360.672 241.41 360.828 242.345L359.705 242.018L359.846 235.47H363.306V259.882H359.799V253.522L360.734 253.008C360.547 253.943 360.126 254.847 359.471 255.72C358.817 256.593 357.975 257.388 356.946 258.105C355.917 258.791 354.764 259.337 353.485 259.742C352.207 260.147 350.867 260.35 349.464 260.35ZM350.212 256.983C352.082 256.983 353.75 256.593 355.216 255.814C356.712 255.003 357.881 253.896 358.723 252.493C359.565 251.059 359.986 249.438 359.986 247.63C359.986 245.853 359.565 244.263 358.723 242.86C357.881 241.457 356.712 240.334 355.216 239.492C353.75 238.651 352.082 238.23 350.212 238.23C348.279 238.23 346.58 238.651 345.114 239.492C343.649 240.334 342.495 241.457 341.654 242.86C340.812 244.263 340.391 245.853 340.391 247.63C340.391 249.438 340.796 251.044 341.607 252.447C342.417 253.85 343.555 254.956 345.021 255.767C346.517 256.578 348.248 256.983 350.212 256.983Z" fill="#FBFFED"/>
<path d="M317.664 259.882V235.47H321.172L321.265 242.439L320.61 242.018C321.016 240.708 321.67 239.524 322.575 238.464C323.479 237.372 324.539 236.515 325.755 235.891C326.971 235.237 328.28 234.909 329.683 234.909C330.462 234.909 331.211 234.987 331.928 235.143C332.676 235.268 333.268 235.455 333.705 235.704L332.723 239.539C332.193 239.227 331.6 239.009 330.946 238.884C330.291 238.76 329.683 238.697 329.122 238.697C327.875 238.697 326.752 238.916 325.755 239.352C324.788 239.789 323.962 240.381 323.276 241.129C322.59 241.846 322.076 242.672 321.733 243.608C321.39 244.512 321.218 245.463 321.218 246.461V259.882H317.664Z" fill="#FBFFED"/>
<path d="M298.508 259.882V228.502H302.062V259.882H298.508ZM291.82 238.838V235.47H309.638V238.838H291.82Z" fill="#FBFFED"/>
<path d="M265.099 264.699L253.127 248.939L256.12 247.115L268.046 262.782L265.099 264.699ZM253.221 260.35C250.664 260.35 248.326 259.945 246.206 259.134C244.086 258.292 242.231 257.123 240.641 255.627C239.051 254.099 237.819 252.322 236.946 250.295C236.104 248.237 235.684 246.008 235.684 243.608C235.684 241.207 236.104 238.993 236.946 236.967C237.819 234.909 239.051 233.116 240.641 231.589C242.231 230.061 244.086 228.892 246.206 228.081C248.326 227.239 250.664 226.819 253.221 226.819C255.777 226.819 258.116 227.239 260.236 228.081C262.387 228.892 264.242 230.061 265.801 231.589C267.391 233.116 268.622 234.909 269.495 236.967C270.368 238.993 270.805 241.207 270.805 243.608C270.805 245.977 270.368 248.191 269.495 250.248C268.622 252.275 267.391 254.052 265.801 255.58C264.242 257.107 262.387 258.292 260.236 259.134C258.116 259.945 255.777 260.35 253.221 260.35ZM253.221 256.749C255.216 256.749 257.056 256.437 258.739 255.814C260.454 255.159 261.919 254.239 263.135 253.054C264.382 251.87 265.333 250.482 265.988 248.892C266.674 247.271 267.017 245.509 267.017 243.608C267.017 241.675 266.674 239.913 265.988 238.323C265.333 236.702 264.382 235.299 263.135 234.114C261.919 232.929 260.454 232.01 258.739 231.355C257.056 230.7 255.216 230.373 253.221 230.373C251.226 230.373 249.37 230.7 247.656 231.355C245.972 232.01 244.507 232.945 243.26 234.161C242.044 235.346 241.108 236.749 240.454 238.37C239.799 239.96 239.472 241.706 239.472 243.608C239.472 245.509 239.799 247.255 240.454 248.845C241.108 250.435 242.044 251.838 243.26 253.054C244.507 254.239 245.972 255.159 247.656 255.814C249.37 256.437 251.226 256.749 253.221 256.749Z" fill="#FBFFED"/>
<path d="M199.743 259.882L213.633 227.146H217.935L231.731 259.882H227.709L218.263 237.528C217.982 236.78 217.701 236.063 217.421 235.377C217.171 234.66 216.906 233.974 216.626 233.319C216.376 232.633 216.127 231.947 215.877 231.262C215.628 230.576 215.379 229.89 215.129 229.204H216.158C215.877 230.014 215.612 230.778 215.363 231.495C215.114 232.181 214.849 232.852 214.568 233.506C214.319 234.161 214.054 234.831 213.773 235.517C213.492 236.203 213.196 236.951 212.884 237.762L203.484 259.882H199.743ZM205.542 251.044L206.992 247.489H224.249L225.465 251.044H205.542Z" fill="#FBFFED"/>
<path d="M167.695 259.882V257.076L190.283 229.718L191.172 230.747H168.911V227.146H194.773V229.905L172.232 257.31L171.296 256.281H195.287V259.882H167.695Z" fill="#FBFFED"/>
<path d="M131.075 259.882L144.965 227.146H149.267L163.063 259.882H159.041L149.594 237.528C149.314 236.78 149.033 236.063 148.753 235.377C148.503 234.66 148.238 233.974 147.958 233.319C147.708 232.633 147.459 231.947 147.209 231.262C146.96 230.576 146.71 229.89 146.461 229.204H147.49C147.209 230.014 146.944 230.778 146.695 231.495C146.445 232.181 146.18 232.852 145.9 233.506C145.65 234.161 145.385 234.831 145.105 235.517C144.824 236.203 144.528 236.951 144.216 237.762L134.816 259.882H131.075ZM136.874 251.044L138.324 247.489H155.58L156.796 251.044H136.874Z" fill="#FBFFED"/>
<path d="M121.416 264.699L109.444 248.939L112.437 247.115L124.362 262.782L121.416 264.699ZM109.537 260.35C106.981 260.35 104.642 259.945 102.522 259.134C100.402 258.292 98.5473 257.123 96.9572 255.627C95.3672 254.099 94.1357 252.322 93.2627 250.295C92.4209 248.237 92 246.008 92 243.608C92 241.207 92.4209 238.993 93.2627 236.967C94.1357 234.909 95.3672 233.116 96.9572 231.589C98.5473 230.061 100.402 228.892 102.522 228.081C104.642 227.239 106.981 226.819 109.537 226.819C112.094 226.819 114.432 227.239 116.552 228.081C118.703 228.892 120.559 230.061 122.117 231.589C123.707 233.116 124.939 234.909 125.812 236.967C126.685 238.993 127.121 241.207 127.121 243.608C127.121 245.977 126.685 248.191 125.812 250.248C124.939 252.275 123.707 254.052 122.117 255.58C120.559 257.107 118.703 258.292 116.552 259.134C114.432 259.945 112.094 260.35 109.537 260.35ZM109.537 256.749C111.533 256.749 113.372 256.437 115.056 255.814C116.77 255.159 118.236 254.239 119.452 253.054C120.699 251.87 121.65 250.482 122.304 248.892C122.99 247.271 123.333 245.509 123.333 243.608C123.333 241.675 122.99 239.913 122.304 238.323C121.65 236.702 120.699 235.299 119.452 234.114C118.236 232.929 116.77 232.01 115.056 231.355C113.372 230.7 111.533 230.373 109.537 230.373C107.542 230.373 105.687 230.7 103.972 231.355C102.289 232.01 100.823 232.945 99.5761 234.161C98.3602 235.346 97.4249 236.749 96.7702 238.37C96.1154 239.96 95.7881 241.706 95.7881 243.608C95.7881 245.509 96.1154 247.255 96.7702 248.845C97.4249 250.435 98.3602 251.838 99.5761 253.054C100.823 254.239 102.289 255.159 103.972 255.814C105.687 256.437 107.542 256.749 109.537 256.749Z" fill="#FBFFED"/>
</svg>
